<svg width="722.4400390625px" height="88.594970703125px" xmlns="http://www.w3.org/2000/svg" viewBox="-111.22001953124999 30.7025146484375 722.4400390625 88.594970703125" style="background: none;" preserveAspectRatio="xMidYMid"><defs><linearGradient id="editing-shadow-gradient1" x1="0" x2="0" y1="0" y2="1"><stop offset="0" stop-color="#b4b524" stop-opacity="0"></stop><stop offset="0.2" stop-color="#b4b524" stop-opacity="0"></stop><stop offset="1" stop-color="#b4b524" stop-opacity="1"></stop></linearGradient><linearGradient id="editing-shadow-gradient2" x1="-0.254709580222772" x2="1.2547095802227721" y1="-0.15605902899050716" y2="1.1560590289905073"><stop offset="0" stop-color="#de5535"></stop><stop offset="1" stop-color="rgba(85.90476190476191%,30.00341320754717%,11.227387690925427%,0.747)"></stop></linearGradient><filter id="editing-shadow" x="-100%" y="-100%" width="300%" height="300%"><feGaussianBlur stdDeviation="20"></feGaussianBlur><feComposite operator="in" in2="SourceGraphic"></feComposite><feGaussianBlur stdDeviation="10"></feGaussianBlur></filter></defs><g transform="translate(250,75)"><g transform="translate(-5, 0.7)"><g transform="skewX(45)"><g filter="url(#editing-shadow)"><g transform="translate(-233.97499704360962, 18)"><path d="M25.75 0L4.45 0L4.45 0Q3.50 0 3.08-0.43L3.08-0.43L3.08-0.43Q2.65-0.85 2.65-1.80L2.65-1.80L2.65-7.75L2.65-7.75Q2.65-8.70 3.08-9.13L3.08-9.13L3.08-9.13Q3.50-9.55 4.45-9.55L4.45-9.55L9.40-9.55L9.40-26.35L4.45-26.35L4.45-26.35Q3.50-26.35 3.08-26.78L3.08-26.78L3.08-26.78Q2.65-27.20 2.65-28.15L2.65-28.15L2.65-34.20L2.65-34.20Q2.65-35.15 3.08-35.58L3.08-35.58L3.08-35.58Q3.50-36 4.45-36L4.45-36L25.75-36L25.75-36Q26.70-36 27.13-35.58L27.13-35.58L27.13-35.58Q27.55-35.15 27.55-34.20L27.55-34.20L27.55-28.15L27.55-28.15Q27.55-27.20 27.13-26.78L27.13-26.78L27.13-26.78Q26.70-26.35 25.75-26.35L25.75-26.35L20.90-26.35L20.90-9.55L25.75-9.55L25.75-9.55Q26.70-9.55 27.13-9.13L27.13-9.13L27.13-9.13Q27.55-8.70 27.55-7.75L27.55-7.75L27.55-1.80L27.55-1.80Q27.55-0.85 27.13-0.43L27.13-0.43L27.13-0.43Q26.70 0 25.75 0L25.75 0ZM42.95 0L42.95 0L35.50 0L35.50 0Q34.55 0 34.13-0.43L34.13-0.43L34.13-0.43Q33.70-0.85 33.70-1.80L33.70-1.80L33.70-34.20L33.70-34.20Q33.70-35.15 34.13-35.58L34.13-35.58L34.13-35.58Q34.55-36 35.50-36L35.50-36L43.55-36L43.55-36Q44.35-36 44.88-35.65L44.88-35.65L44.88-35.65Q45.40-35.30 45.85-34.50L45.85-34.50L50.35-26.35L50.35-26.35Q50.60-25.90 50.78-25.70L50.78-25.70L50.78-25.70Q50.95-25.50 51.25-25.50L51.25-25.50L51.70-25.50L51.70-25.50Q52-25.50 52.17-25.70L52.17-25.70L52.17-25.70Q52.35-25.90 52.60-26.35L52.60-26.35L57.05-34.50L57.05-34.50Q57.50-35.30 58.03-35.65L58.03-35.65L58.03-35.65Q58.55-36 59.35-36L59.35-36L67.45-36L67.45-36Q68.40-36 68.83-35.58L68.83-35.58L68.83-35.58Q69.25-35.15 69.25-34.20L69.25-34.20L69.25-1.80L69.25-1.80Q69.25-0.85 68.83-0.43L68.83-0.43L68.83-0.43Q68.40 0 67.45 0L67.45 0L59.75 0L59.75 0Q58.80 0 58.38-0.43L58.38-0.43L58.38-0.43Q57.95-0.85 57.95-1.80L57.95-1.80L57.95-19.40L55-13.95L55-13.95Q54.55-13.10 53.92-12.73L53.92-12.73L53.92-12.73Q53.30-12.35 52.35-12.35L52.35-12.35L50.35-12.35L50.35-12.35Q49.40-12.35 48.78-12.73L48.78-12.73L48.78-12.73Q48.15-13.10 47.70-13.95L47.70-13.95L44.75-19.40L44.75-1.80L44.75-1.80Q44.75-0.85 44.33-0.43L44.33-0.43L44.33-0.43Q43.90 0 42.95 0ZM89.20-25.50L89.20-25.50L86.85-17.90L94.70-17.90L92.35-25.50L92.35-25.50Q92.15-25.95 91.93-26.15L91.93-26.15L91.93-26.15Q91.70-26.35 91.40-26.35L91.40-26.35L90.15-26.35L90.15-26.35Q89.85-26.35 89.63-26.15L89.63-26.15L89.63-26.15Q89.40-25.95 89.20-25.50ZM86.35-8.80L86.35-1.80L86.35-1.80Q86.35-0.85 85.93-0.43L85.93-0.43L85.93-0.43Q85.50 0 84.55 0L84.55 0L77.20 0L77.20 0Q76.25 0 75.83-0.43L75.83-0.43L75.83-0.43Q75.40-0.85 75.40-1.80L75.40-1.80L75.40-15L75.40-15Q75.40-16.50 75.88-18.45L75.88-18.45L75.88-18.45Q76.35-20.40 77.35-23L77.35-23L81.70-34.35L81.70-34.35Q82-35.20 82.63-35.60L82.63-35.60L82.63-35.60Q83.25-36 84.25-36L84.25-36L97.70-36L97.70-36Q98.65-36 99.28-35.60L99.28-35.60L99.28-35.60Q99.90-35.20 100.20-34.35L100.20-34.35L104.55-23L104.55-23Q105.55-20.40 106.03-18.45L106.03-18.45L106.03-18.45Q106.50-16.50 106.50-15L106.50-15L106.50-1.80L106.50-1.80Q106.50-0.85 106.08-0.43L106.08-0.43L106.08-0.43Q105.65 0 104.70 0L104.70 0L97.15 0L97.15 0Q96.15 0 95.68-0.43L95.68-0.43L95.68-0.43Q95.20-0.85 95.20-1.80L95.20-1.80L95.20-8.80L86.35-8.80ZM140.15 0L140.15 0L124.40 0L124.40 0Q118.15 0 115.13-2.50L115.13-2.50L115.13-2.50Q112.10-5 112.10-10.20L112.10-10.20L112.10-25.80L112.10-25.80Q112.10-31 115.13-33.50L115.13-33.50L115.13-33.50Q118.15-36 124.40-36L124.40-36L136.90-36L136.90-36Q137.85-36 138.28-35.58L138.28-35.58L138.28-35.58Q138.70-35.15 138.70-34.20L138.70-34.20L138.70-28.15L138.70-28.15Q138.70-27.20 138.28-26.78L138.28-26.78L138.28-26.78Q137.85-26.35 136.90-26.35L136.90-26.35L126.50-26.35L126.50-26.35Q124.95-26.35 124.20-25.73L124.20-25.73L124.20-25.73Q123.45-25.10 123.45-23.85L123.45-23.85L123.45-11.90L123.45-11.90Q123.45-10.65 124.03-10.05L124.03-10.05L124.03-10.05Q124.60-9.45 125.75-9.45L125.75-9.45L130.60-9.45L130.60-17.25L130.60-17.25Q130.60-18.20 131.03-18.63L131.03-18.63L131.03-18.63Q131.45-19.05 132.40-19.05L132.40-19.05L140.15-19.05L140.15-19.05Q141.10-19.05 141.53-18.63L141.53-18.63L141.53-18.63Q141.95-18.20 141.95-17.25L141.95-17.25L141.95-1.80L141.95-1.80Q141.95-0.85 141.53-0.43L141.53-0.43L141.53-0.43Q141.10 0 140.15 0ZM173.05 0L173.05 0L149.85 0L149.85 0Q148.90 0 148.47-0.43L148.47-0.43L148.47-0.43Q148.05-0.85 148.05-1.80L148.05-1.80L148.05-34.20L148.05-34.20Q148.05-35.15 148.47-35.58L148.47-35.58L148.47-35.58Q148.90-36 149.85-36L149.85-36L173.05-36L173.05-36Q174-36 174.43-35.58L174.43-35.58L174.43-35.58Q174.85-35.15 174.85-34.20L174.85-34.20L174.85-28.35L174.85-28.35Q174.85-27.40 174.43-26.98L174.43-26.98L174.43-26.98Q174-26.55 173.05-26.55L173.05-26.55L159.25-26.55L159.25-22.70L169-22.70L169-22.70Q169.95-22.70 170.38-22.28L170.38-22.28L170.38-22.28Q170.80-21.85 170.80-20.90L170.80-20.90L170.80-15.55L170.80-15.55Q170.80-14.60 170.38-14.18L170.38-14.18L170.38-14.18Q169.95-13.75 169-13.75L169-13.75L159.25-13.75L159.25-9.45L173.05-9.45L173.05-9.45Q174-9.45 174.43-9.03L174.43-9.03L174.43-9.03Q174.85-8.60 174.85-7.65L174.85-7.65L174.85-1.80L174.85-1.80Q174.85-0.85 174.43-0.43L174.43-0.43L174.43-0.43Q174 0 173.05 0ZM197.45 0L197.45 0L181.65 0L181.65 0Q180.70 0 180.28-0.43L180.28-0.43L180.28-0.43Q179.85-0.85 179.85-1.80L179.85-1.80L179.85-7.65L179.85-7.65Q179.85-8.60 180.28-9.03L180.28-9.03L180.28-9.03Q180.70-9.45 181.65-9.45L181.65-9.45L195.10-9.45L195.10-9.45Q195.75-9.45 196.08-9.88L196.08-9.88L196.08-9.88Q196.40-10.30 196.40-10.90L196.40-10.90L196.40-10.90Q196.40-11.75 196.08-12.15L196.08-12.15L196.08-12.15Q195.75-12.55 195.10-12.60L195.10-12.60L187.60-13.65L187.60-13.65Q184.10-14.15 181.98-15.95L181.98-15.95L181.98-15.95Q179.85-17.75 179.85-21.95L179.85-21.95L179.85-27.20L179.85-27.20Q179.85-31.45 182.60-33.73L182.60-33.73L182.60-33.73Q185.35-36 190.20-36L190.20-36L204.20-36L204.20-36Q205.15-36 205.58-35.58L205.58-35.58L205.58-35.58Q206-35.15 206-34.20L206-34.20L206-28.25L206-28.25Q206-27.30 205.58-26.88L205.58-26.88L205.58-26.88Q205.15-26.45 204.20-26.45L204.20-26.45L192.55-26.45L192.55-26.45Q191.90-26.45 191.55-26.03L191.55-26.03L191.55-26.03Q191.20-25.60 191.20-24.95L191.20-24.95L191.20-24.95Q191.20-24.30 191.55-23.85L191.55-23.85L191.55-23.85Q191.90-23.40 192.55-23.35L192.55-23.35L200-22.35L200-22.35Q203.50-21.85 205.65-20.05L205.65-20.05L205.65-20.05Q207.80-18.25 207.80-14.05L207.80-14.05L207.80-8.80L207.80-8.80Q207.80-4.55 205.03-2.27L205.03-2.27L205.03-2.27Q202.25 0 197.45 0ZM252 0L252 0L236.25 0L236.25 0Q230 0 226.98-2.50L226.98-2.50L226.98-2.50Q223.95-5 223.95-10.20L223.95-10.20L223.95-25.80L223.95-25.80Q223.95-31 226.98-33.50L226.98-33.50L226.98-33.50Q230-36 236.25-36L236.25-36L248.75-36L248.75-36Q249.70-36 250.13-35.58L250.13-35.58L250.13-35.58Q250.55-35.15 250.55-34.20L250.55-34.20L250.55-28.15L250.55-28.15Q250.55-27.20 250.13-26.78L250.13-26.78L250.13-26.78Q249.70-26.35 248.75-26.35L248.75-26.35L238.35-26.35L238.35-26.35Q236.80-26.35 236.05-25.73L236.05-25.73L236.05-25.73Q235.30-25.10 235.30-23.85L235.30-23.85L235.30-11.90L235.30-11.90Q235.30-10.65 235.88-10.05L235.88-10.05L235.88-10.05Q236.45-9.45 237.60-9.45L237.60-9.45L242.45-9.45L242.45-17.25L242.45-17.25Q242.45-18.20 242.88-18.63L242.88-18.63L242.88-18.63Q243.30-19.05 244.25-19.05L244.25-19.05L252-19.05L252-19.05Q252.95-19.05 253.38-18.63L253.38-18.63L253.38-18.63Q253.80-18.20 253.80-17.25L253.80-17.25L253.80-1.80L253.80-1.80Q253.80-0.85 253.38-0.43L253.38-0.43L253.38-0.43Q252.95 0 252 0ZM272.95-25.50L272.95-25.50L270.60-17.90L278.45-17.90L276.10-25.50L276.10-25.50Q275.90-25.95 275.68-26.15L275.68-26.15L275.68-26.15Q275.45-26.35 275.15-26.35L275.15-26.35L273.90-26.35L273.90-26.35Q273.60-26.35 273.38-26.15L273.38-26.15L273.38-26.15Q273.15-25.95 272.95-25.50ZM270.10-8.80L270.10-1.80L270.10-1.80Q270.10-0.85 269.68-0.43L269.68-0.43L269.68-0.43Q269.25 0 268.30 0L268.30 0L260.95 0L260.95 0Q260 0 259.57-0.43L259.57-0.43L259.57-0.43Q259.15-0.85 259.15-1.80L259.15-1.80L259.15-15L259.15-15Q259.15-16.50 259.63-18.45L259.63-18.45L259.63-18.45Q260.10-20.40 261.10-23L261.10-23L265.45-34.35L265.45-34.35Q265.75-35.20 266.38-35.60L266.38-35.60L266.38-35.60Q267-36 268-36L268-36L281.45-36L281.45-36Q282.40-36 283.02-35.60L283.02-35.60L283.02-35.60Q283.65-35.20 283.95-34.35L283.95-34.35L288.30-23L288.30-23Q289.30-20.40 289.77-18.45L289.77-18.45L289.77-18.45Q290.25-16.50 290.25-15L290.25-15L290.25-1.80L290.25-1.80Q290.25-0.85 289.82-0.43L289.82-0.43L289.82-0.43Q289.40 0 288.45 0L288.45 0L280.90 0L280.90 0Q279.90 0 279.43-0.43L279.43-0.43L279.43-0.43Q278.95-0.85 278.95-1.80L278.95-1.80L278.95-8.80L270.10-8.80ZM323.65 0L323.65 0L298.20 0L298.20 0Q297.25 0 296.82-0.43L296.82-0.43L296.82-0.43Q296.40-0.85 296.40-1.80L296.40-1.80L296.40-34.20L296.40-34.20Q296.40-35.15 296.82-35.58L296.82-35.58L296.82-35.58Q297.25-36 298.20-36L298.20-36L305.95-36L305.95-36Q306.90-36 307.32-35.58L307.32-35.58L307.32-35.58Q307.75-35.15 307.75-34.20L307.75-34.20L307.75-9.45L314.60-9.45L314.60-17.55L314.60-17.55Q314.60-18.50 315.02-18.93L315.02-18.93L315.02-18.93Q315.45-19.35 316.40-19.35L316.40-19.35L323.65-19.35L323.65-19.35Q324.60-19.35 325.02-18.93L325.02-18.93L325.02-18.93Q325.45-18.50 325.45-17.55L325.45-17.55L325.45-1.80L325.45-1.80Q325.45-0.85 325.02-0.43L325.02-0.43L325.02-0.43Q324.60 0 323.65 0ZM358.40 0L358.40 0L332.95 0L332.95 0Q332 0 331.57-0.43L331.57-0.43L331.57-0.43Q331.15-0.85 331.15-1.80L331.15-1.80L331.15-34.20L331.15-34.20Q331.15-35.15 331.57-35.58L331.57-35.58L331.57-35.58Q332-36 332.95-36L332.95-36L340.70-36L340.70-36Q341.65-36 342.07-35.58L342.07-35.58L342.07-35.58Q342.50-35.15 342.50-34.20L342.50-34.20L342.50-9.45L349.35-9.45L349.35-17.55L349.35-17.55Q349.35-18.50 349.77-18.93L349.77-18.93L349.77-18.93Q350.20-19.35 351.15-19.35L351.15-19.35L358.40-19.35L358.40-19.35Q359.35-19.35 359.77-18.93L359.77-18.93L359.77-18.93Q360.20-18.50 360.20-17.55L360.20-17.55L360.20-1.80L360.20-1.80Q360.20-0.85 359.77-0.43L359.77-0.43L359.77-0.43Q359.35 0 358.40 0ZM390.90 0L390.90 0L367.70 0L367.70 0Q366.75 0 366.32-0.43L366.32-0.43L366.32-0.43Q365.90-0.85 365.90-1.80L365.90-1.80L365.90-34.20L365.90-34.20Q365.90-35.15 366.32-35.58L366.32-35.58L366.32-35.58Q366.75-36 367.70-36L367.70-36L390.90-36L390.90-36Q391.85-36 392.27-35.58L392.27-35.58L392.27-35.58Q392.70-35.15 392.70-34.20L392.70-34.20L392.70-28.35L392.70-28.35Q392.70-27.40 392.27-26.98L392.27-26.98L392.27-26.98Q391.85-26.55 390.90-26.55L390.90-26.55L377.10-26.55L377.10-22.70L386.85-22.70L386.85-22.70Q387.80-22.70 388.22-22.28L388.22-22.28L388.22-22.28Q388.65-21.85 388.65-20.90L388.65-20.90L388.65-15.55L388.65-15.55Q388.65-14.60 388.22-14.18L388.22-14.18L388.22-14.18Q387.80-13.75 386.85-13.75L386.85-13.75L377.10-13.75L377.10-9.45L390.90-9.45L390.90-9.45Q391.85-9.45 392.27-9.03L392.27-9.03L392.27-9.03Q392.70-8.60 392.70-7.65L392.70-7.65L392.70-1.80L392.70-1.80Q392.70-0.85 392.27-0.43L392.27-0.43L392.27-0.43Q391.85 0 390.90 0ZM413.65-27L409.90-27L409.90-20.60L413.65-20.60L413.65-20.60Q414.95-20.60 415.40-21.28L415.40-21.28L415.40-21.28Q415.85-21.95 415.85-22.95L415.85-22.95L415.85-24.65L415.85-24.65Q415.85-25.65 415.40-26.33L415.40-26.33L415.40-26.33Q414.95-27 413.65-27L413.65-27ZM408.10 0L408.10 0L400.40 0L400.40 0Q399.45 0 399.02-0.43L399.02-0.43L399.02-0.43Q398.60-0.85 398.60-1.80L398.60-1.80L398.60-34.20L398.60-34.20Q398.60-35.15 399.02-35.58L399.02-35.58L399.02-35.58Q399.45-36 400.40-36L400.40-36L417.05-36L417.05-36Q422.65-36 424.77-33.68L424.77-33.68L424.77-33.68Q426.90-31.35 426.90-27.65L426.90-27.65L426.90-25.35L426.90-25.35Q426.90-23.25 426.27-21.78L426.27-21.78L426.27-21.78Q425.65-20.30 424.10-19.65L424.10-19.65L424.10-19.65Q426.80-19.35 428.47-17.45L428.47-17.45L428.47-17.45Q430.15-15.55 430.15-12.40L430.15-12.40L430.15-1.80L430.15-1.80Q430.15-0.85 429.72-0.43L429.72-0.43L429.72-0.43Q429.30 0 428.35 0L428.35 0L420.60 0L420.60 0Q419.65 0 419.22-0.43L419.22-0.43L419.22-0.43Q418.80-0.85 418.80-1.80L418.80-1.80L418.80-9.45L418.80-9.45Q418.80-10.55 418.38-11.08L418.38-11.08L418.38-11.08Q417.95-11.60 416.90-11.60L416.90-11.60L409.90-11.60L409.90-1.80L409.90-1.80Q409.90-0.85 409.47-0.43L409.47-0.43L409.47-0.43Q409.05 0 408.10 0ZM454.00 0L454.00 0L445.90 0L445.90 0Q444.95 0 444.52-0.43L444.52-0.43L444.52-0.43Q444.10-0.85 444.10-1.80L444.10-1.80L444.10-8.20L436.45-18.45L436.45-18.45Q435.30-20 434.92-21.15L434.92-21.15L434.92-21.15Q434.55-22.30 434.55-24.60L434.55-24.60L434.55-34.20L434.55-34.20Q434.55-35.15 434.97-35.58L434.97-35.58L434.97-35.58Q435.40-36 436.35-36L436.35-36L444.05-36L444.05-36Q445.00-36 445.42-35.58L445.42-35.58L445.42-35.58Q445.85-35.15 445.85-34.20L445.85-34.20L445.85-26L445.85-26Q445.85-25.50 445.90-24.95L445.90-24.95L445.90-24.95Q445.95-24.40 446.30-23.90L446.30-23.90L448.60-20.30L448.60-20.30Q448.85-19.85 449.12-19.65L449.12-19.65L449.12-19.65Q449.40-19.45 449.80-19.45L449.80-19.45L450.30-19.45L450.30-19.45Q450.70-19.45 450.97-19.65L450.97-19.65L450.97-19.65Q451.25-19.85 451.50-20.30L451.50-20.30L453.80-23.90L453.80-23.90Q454.15-24.40 454.20-24.95L454.20-24.95L454.20-24.95Q454.25-25.50 454.25-26L454.25-26L454.25-34.20L454.25-34.20Q454.25-35.15 454.67-35.58L454.67-35.58L454.67-35.58Q455.10-36 456.05-36L456.05-36L463.50-36L463.50-36Q464.45-36 464.87-35.58L464.87-35.58L464.87-35.58Q465.30-35.15 465.30-34.20L465.30-34.20L465.30-24.60L465.30-24.60Q465.30-22.30 464.90-21.15L464.90-21.15L464.90-21.15Q464.50-20 463.40-18.45L463.40-18.45L455.80-8.15L455.80-1.80L455.80-1.80Q455.80-0.85 455.37-0.43L455.37-0.43L455.37-0.43Q454.95 0 454.00 0Z" fill="url(#editing-shadow-gradient1)"></path></g></g></g></g><g><g transform="translate(-233.97499704360962, 18)"><path d="M25.75 0L4.45 0L4.45 0Q3.50 0 3.08-0.43L3.08-0.43L3.08-0.43Q2.65-0.85 2.65-1.80L2.65-1.80L2.65-7.75L2.65-7.75Q2.65-8.70 3.08-9.13L3.08-9.13L3.08-9.13Q3.50-9.55 4.45-9.55L4.45-9.55L9.40-9.55L9.40-26.35L4.45-26.35L4.45-26.35Q3.50-26.35 3.08-26.78L3.08-26.78L3.08-26.78Q2.65-27.20 2.65-28.15L2.65-28.15L2.65-34.20L2.65-34.20Q2.65-35.15 3.08-35.58L3.08-35.58L3.08-35.58Q3.50-36 4.45-36L4.45-36L25.75-36L25.75-36Q26.70-36 27.13-35.58L27.13-35.58L27.13-35.58Q27.55-35.15 27.55-34.20L27.55-34.20L27.55-28.15L27.55-28.15Q27.55-27.20 27.13-26.78L27.13-26.78L27.13-26.78Q26.70-26.35 25.75-26.35L25.75-26.35L20.90-26.35L20.90-9.55L25.75-9.55L25.75-9.55Q26.70-9.55 27.13-9.13L27.13-9.13L27.13-9.13Q27.55-8.70 27.55-7.75L27.55-7.75L27.55-1.80L27.55-1.80Q27.55-0.85 27.13-0.43L27.13-0.43L27.13-0.43Q26.70 0 25.75 0L25.75 0ZM42.95 0L42.95 0L35.50 0L35.50 0Q34.55 0 34.13-0.43L34.13-0.43L34.13-0.43Q33.70-0.85 33.70-1.80L33.70-1.80L33.70-34.20L33.70-34.20Q33.70-35.15 34.13-35.58L34.13-35.58L34.13-35.58Q34.55-36 35.50-36L35.50-36L43.55-36L43.55-36Q44.35-36 44.88-35.65L44.88-35.65L44.88-35.65Q45.40-35.30 45.85-34.50L45.85-34.50L50.35-26.35L50.35-26.35Q50.60-25.90 50.78-25.70L50.78-25.70L50.78-25.70Q50.95-25.50 51.25-25.50L51.25-25.50L51.70-25.50L51.70-25.50Q52-25.50 52.17-25.70L52.17-25.70L52.17-25.70Q52.35-25.90 52.60-26.35L52.60-26.35L57.05-34.50L57.05-34.50Q57.50-35.30 58.03-35.65L58.03-35.65L58.03-35.65Q58.55-36 59.35-36L59.35-36L67.45-36L67.45-36Q68.40-36 68.83-35.58L68.83-35.58L68.83-35.58Q69.25-35.15 69.25-34.20L69.25-34.20L69.25-1.80L69.25-1.80Q69.25-0.85 68.83-0.43L68.83-0.43L68.83-0.43Q68.40 0 67.45 0L67.45 0L59.75 0L59.75 0Q58.80 0 58.38-0.43L58.38-0.43L58.38-0.43Q57.95-0.85 57.95-1.80L57.95-1.80L57.95-19.40L55-13.95L55-13.95Q54.55-13.10 53.92-12.73L53.92-12.73L53.92-12.73Q53.30-12.35 52.35-12.35L52.35-12.35L50.35-12.35L50.35-12.35Q49.40-12.35 48.78-12.73L48.78-12.73L48.78-12.73Q48.15-13.10 47.70-13.95L47.70-13.95L44.75-19.40L44.75-1.80L44.75-1.80Q44.75-0.85 44.33-0.43L44.33-0.43L44.33-0.43Q43.90 0 42.95 0ZM89.20-25.50L89.20-25.50L86.85-17.90L94.70-17.90L92.35-25.50L92.35-25.50Q92.15-25.95 91.93-26.15L91.93-26.15L91.93-26.15Q91.70-26.35 91.40-26.35L91.40-26.35L90.15-26.35L90.15-26.35Q89.85-26.35 89.63-26.15L89.63-26.15L89.63-26.15Q89.40-25.95 89.20-25.50ZM86.35-8.80L86.35-1.80L86.35-1.80Q86.35-0.85 85.93-0.43L85.93-0.43L85.93-0.43Q85.50 0 84.55 0L84.55 0L77.20 0L77.20 0Q76.25 0 75.83-0.43L75.83-0.43L75.83-0.43Q75.40-0.85 75.40-1.80L75.40-1.80L75.40-15L75.40-15Q75.40-16.50 75.88-18.45L75.88-18.45L75.88-18.45Q76.35-20.40 77.35-23L77.35-23L81.70-34.35L81.70-34.35Q82-35.20 82.63-35.60L82.63-35.60L82.63-35.60Q83.25-36 84.25-36L84.25-36L97.70-36L97.70-36Q98.65-36 99.28-35.60L99.28-35.60L99.28-35.60Q99.90-35.20 100.20-34.35L100.20-34.35L104.55-23L104.55-23Q105.55-20.40 106.03-18.45L106.03-18.45L106.03-18.45Q106.50-16.50 106.50-15L106.50-15L106.50-1.80L106.50-1.80Q106.50-0.85 106.08-0.43L106.08-0.43L106.08-0.43Q105.65 0 104.70 0L104.70 0L97.15 0L97.15 0Q96.15 0 95.68-0.43L95.68-0.43L95.68-0.43Q95.20-0.85 95.20-1.80L95.20-1.80L95.20-8.80L86.35-8.80ZM140.15 0L140.15 0L124.40 0L124.40 0Q118.15 0 115.13-2.50L115.13-2.50L115.13-2.50Q112.10-5 112.10-10.20L112.10-10.20L112.10-25.80L112.10-25.80Q112.10-31 115.13-33.50L115.13-33.50L115.13-33.50Q118.15-36 124.40-36L124.40-36L136.90-36L136.90-36Q137.85-36 138.28-35.58L138.28-35.58L138.28-35.58Q138.70-35.15 138.70-34.20L138.70-34.20L138.70-28.15L138.70-28.15Q138.70-27.20 138.28-26.78L138.28-26.78L138.28-26.78Q137.85-26.35 136.90-26.35L136.90-26.35L126.50-26.35L126.50-26.35Q124.95-26.35 124.20-25.73L124.20-25.73L124.20-25.73Q123.45-25.10 123.45-23.85L123.45-23.85L123.45-11.90L123.45-11.90Q123.45-10.65 124.03-10.05L124.03-10.05L124.03-10.05Q124.60-9.45 125.75-9.45L125.75-9.45L130.60-9.45L130.60-17.25L130.60-17.25Q130.60-18.20 131.03-18.63L131.03-18.63L131.03-18.63Q131.45-19.05 132.40-19.05L132.40-19.05L140.15-19.05L140.15-19.05Q141.10-19.05 141.53-18.63L141.53-18.63L141.53-18.63Q141.95-18.20 141.95-17.25L141.95-17.25L141.95-1.80L141.95-1.80Q141.95-0.85 141.53-0.43L141.53-0.43L141.53-0.43Q141.10 0 140.15 0ZM173.05 0L173.05 0L149.85 0L149.85 0Q148.90 0 148.47-0.43L148.47-0.43L148.47-0.43Q148.05-0.85 148.05-1.80L148.05-1.80L148.05-34.20L148.05-34.20Q148.05-35.15 148.47-35.58L148.47-35.58L148.47-35.58Q148.90-36 149.85-36L149.85-36L173.05-36L173.05-36Q174-36 174.43-35.58L174.43-35.58L174.43-35.58Q174.85-35.15 174.85-34.20L174.85-34.20L174.85-28.35L174.85-28.35Q174.85-27.40 174.43-26.98L174.43-26.98L174.43-26.98Q174-26.55 173.05-26.55L173.05-26.55L159.25-26.55L159.25-22.70L169-22.70L169-22.70Q169.95-22.70 170.38-22.28L170.38-22.28L170.38-22.28Q170.80-21.85 170.80-20.90L170.80-20.90L170.80-15.55L170.80-15.55Q170.80-14.60 170.38-14.18L170.38-14.18L170.38-14.18Q169.95-13.75 169-13.75L169-13.75L159.25-13.75L159.25-9.45L173.05-9.45L173.05-9.45Q174-9.45 174.43-9.03L174.43-9.03L174.43-9.03Q174.85-8.60 174.85-7.65L174.85-7.65L174.85-1.80L174.85-1.80Q174.85-0.85 174.43-0.43L174.43-0.43L174.43-0.43Q174 0 173.05 0ZM197.45 0L197.45 0L181.65 0L181.65 0Q180.70 0 180.28-0.43L180.28-0.43L180.28-0.43Q179.85-0.85 179.85-1.80L179.85-1.80L179.85-7.65L179.85-7.65Q179.85-8.60 180.28-9.03L180.28-9.03L180.28-9.03Q180.70-9.45 181.65-9.45L181.65-9.45L195.10-9.45L195.10-9.45Q195.75-9.45 196.08-9.88L196.08-9.88L196.08-9.88Q196.40-10.30 196.40-10.90L196.40-10.90L196.40-10.90Q196.40-11.75 196.08-12.15L196.08-12.15L196.08-12.15Q195.75-12.55 195.10-12.60L195.10-12.60L187.60-13.65L187.60-13.65Q184.10-14.15 181.98-15.95L181.98-15.95L181.98-15.95Q179.85-17.75 179.85-21.95L179.85-21.95L179.85-27.20L179.85-27.20Q179.85-31.45 182.60-33.73L182.60-33.73L182.60-33.73Q185.35-36 190.20-36L190.20-36L204.20-36L204.20-36Q205.15-36 205.58-35.58L205.58-35.58L205.58-35.58Q206-35.15 206-34.20L206-34.20L206-28.25L206-28.25Q206-27.30 205.58-26.88L205.58-26.88L205.58-26.88Q205.15-26.45 204.20-26.45L204.20-26.45L192.55-26.45L192.55-26.45Q191.90-26.45 191.55-26.03L191.55-26.03L191.55-26.03Q191.20-25.60 191.20-24.95L191.20-24.95L191.20-24.95Q191.20-24.30 191.55-23.85L191.55-23.85L191.55-23.85Q191.90-23.40 192.55-23.35L192.55-23.35L200-22.35L200-22.35Q203.50-21.85 205.65-20.05L205.65-20.05L205.65-20.05Q207.80-18.25 207.80-14.05L207.80-14.05L207.80-8.80L207.80-8.80Q207.80-4.55 205.03-2.27L205.03-2.27L205.03-2.27Q202.25 0 197.45 0ZM252 0L252 0L236.25 0L236.25 0Q230 0 226.98-2.50L226.98-2.50L226.98-2.50Q223.95-5 223.95-10.20L223.95-10.20L223.95-25.80L223.95-25.80Q223.95-31 226.98-33.50L226.98-33.50L226.98-33.50Q230-36 236.25-36L236.25-36L248.75-36L248.75-36Q249.70-36 250.13-35.58L250.13-35.58L250.13-35.58Q250.55-35.15 250.55-34.20L250.55-34.20L250.55-28.15L250.55-28.15Q250.55-27.20 250.13-26.78L250.13-26.78L250.13-26.78Q249.70-26.35 248.75-26.35L248.75-26.35L238.35-26.35L238.35-26.35Q236.80-26.35 236.05-25.73L236.05-25.73L236.05-25.73Q235.30-25.10 235.30-23.85L235.30-23.85L235.30-11.90L235.30-11.90Q235.30-10.65 235.88-10.05L235.88-10.05L235.88-10.05Q236.45-9.45 237.60-9.45L237.60-9.45L242.45-9.45L242.45-17.25L242.45-17.25Q242.45-18.20 242.88-18.63L242.88-18.63L242.88-18.63Q243.30-19.05 244.25-19.05L244.25-19.05L252-19.05L252-19.05Q252.95-19.05 253.38-18.63L253.38-18.63L253.38-18.63Q253.80-18.20 253.80-17.25L253.80-17.25L253.80-1.80L253.80-1.80Q253.80-0.85 253.38-0.43L253.38-0.43L253.38-0.43Q252.95 0 252 0ZM272.95-25.50L272.95-25.50L270.60-17.90L278.45-17.90L276.10-25.50L276.10-25.50Q275.90-25.95 275.68-26.15L275.68-26.15L275.68-26.15Q275.45-26.35 275.15-26.35L275.15-26.35L273.90-26.35L273.90-26.35Q273.60-26.35 273.38-26.15L273.38-26.15L273.38-26.15Q273.15-25.95 272.95-25.50ZM270.10-8.80L270.10-1.80L270.10-1.80Q270.10-0.85 269.68-0.43L269.68-0.43L269.68-0.43Q269.25 0 268.30 0L268.30 0L260.95 0L260.95 0Q260 0 259.57-0.43L259.57-0.43L259.57-0.43Q259.15-0.85 259.15-1.80L259.15-1.80L259.15-15L259.15-15Q259.15-16.50 259.63-18.45L259.63-18.45L259.63-18.45Q260.10-20.40 261.10-23L261.10-23L265.45-34.35L265.45-34.35Q265.75-35.20 266.38-35.60L266.38-35.60L266.38-35.60Q267-36 268-36L268-36L281.45-36L281.45-36Q282.40-36 283.02-35.60L283.02-35.60L283.02-35.60Q283.65-35.20 283.95-34.35L283.95-34.35L288.30-23L288.30-23Q289.30-20.40 289.77-18.45L289.77-18.45L289.77-18.45Q290.25-16.50 290.25-15L290.25-15L290.25-1.80L290.25-1.80Q290.25-0.85 289.82-0.43L289.82-0.43L289.82-0.43Q289.40 0 288.45 0L288.45 0L280.90 0L280.90 0Q279.90 0 279.43-0.43L279.43-0.43L279.43-0.43Q278.95-0.85 278.95-1.80L278.95-1.80L278.95-8.80L270.10-8.80ZM323.65 0L323.65 0L298.20 0L298.20 0Q297.25 0 296.82-0.43L296.82-0.43L296.82-0.43Q296.40-0.85 296.40-1.80L296.40-1.80L296.40-34.20L296.40-34.20Q296.40-35.15 296.82-35.58L296.82-35.58L296.82-35.58Q297.25-36 298.20-36L298.20-36L305.95-36L305.95-36Q306.90-36 307.32-35.58L307.32-35.58L307.32-35.58Q307.75-35.15 307.75-34.20L307.75-34.20L307.75-9.45L314.60-9.45L314.60-17.55L314.60-17.55Q314.60-18.50 315.02-18.93L315.02-18.93L315.02-18.93Q315.45-19.35 316.40-19.35L316.40-19.35L323.65-19.35L323.65-19.35Q324.60-19.35 325.02-18.93L325.02-18.93L325.02-18.93Q325.45-18.50 325.45-17.55L325.45-17.55L325.45-1.80L325.45-1.80Q325.45-0.85 325.02-0.43L325.02-0.43L325.02-0.43Q324.60 0 323.65 0ZM358.40 0L358.40 0L332.95 0L332.95 0Q332 0 331.57-0.43L331.57-0.43L331.57-0.43Q331.15-0.85 331.15-1.80L331.15-1.80L331.15-34.20L331.15-34.20Q331.15-35.15 331.57-35.58L331.57-35.58L331.57-35.58Q332-36 332.95-36L332.95-36L340.70-36L340.70-36Q341.65-36 342.07-35.58L342.07-35.58L342.07-35.58Q342.50-35.15 342.50-34.20L342.50-34.20L342.50-9.45L349.35-9.45L349.35-17.55L349.35-17.55Q349.35-18.50 349.77-18.93L349.77-18.93L349.77-18.93Q350.20-19.35 351.15-19.35L351.15-19.35L358.40-19.35L358.40-19.35Q359.35-19.35 359.77-18.93L359.77-18.93L359.77-18.93Q360.20-18.50 360.20-17.55L360.20-17.55L360.20-1.80L360.20-1.80Q360.20-0.85 359.77-0.43L359.77-0.43L359.77-0.43Q359.35 0 358.40 0ZM390.90 0L390.90 0L367.70 0L367.70 0Q366.75 0 366.32-0.43L366.32-0.43L366.32-0.43Q365.90-0.85 365.90-1.80L365.90-1.80L365.90-34.20L365.90-34.20Q365.90-35.15 366.32-35.58L366.32-35.58L366.32-35.58Q366.75-36 367.70-36L367.70-36L390.90-36L390.90-36Q391.85-36 392.27-35.58L392.27-35.58L392.27-35.58Q392.70-35.15 392.70-34.20L392.70-34.20L392.70-28.35L392.70-28.35Q392.70-27.40 392.27-26.98L392.27-26.98L392.27-26.98Q391.85-26.55 390.90-26.55L390.90-26.55L377.10-26.55L377.10-22.70L386.85-22.70L386.85-22.70Q387.80-22.70 388.22-22.28L388.22-22.28L388.22-22.28Q388.65-21.85 388.65-20.90L388.65-20.90L388.65-15.55L388.65-15.55Q388.65-14.60 388.22-14.18L388.22-14.18L388.22-14.18Q387.80-13.75 386.85-13.75L386.85-13.75L377.10-13.75L377.10-9.45L390.90-9.45L390.90-9.45Q391.85-9.45 392.27-9.03L392.27-9.03L392.27-9.03Q392.70-8.60 392.70-7.65L392.70-7.65L392.70-1.80L392.70-1.80Q392.70-0.85 392.27-0.43L392.27-0.43L392.27-0.43Q391.85 0 390.90 0ZM413.65-27L409.90-27L409.90-20.60L413.65-20.60L413.65-20.60Q414.95-20.60 415.40-21.28L415.40-21.28L415.40-21.28Q415.85-21.95 415.85-22.95L415.85-22.95L415.85-24.65L415.85-24.65Q415.85-25.65 415.40-26.33L415.40-26.33L415.40-26.33Q414.95-27 413.65-27L413.65-27ZM408.10 0L408.10 0L400.40 0L400.40 0Q399.45 0 399.02-0.43L399.02-0.43L399.02-0.43Q398.60-0.85 398.60-1.80L398.60-1.80L398.60-34.20L398.60-34.20Q398.60-35.15 399.02-35.58L399.02-35.58L399.02-35.58Q399.45-36 400.40-36L400.40-36L417.05-36L417.05-36Q422.65-36 424.77-33.68L424.77-33.68L424.77-33.68Q426.90-31.35 426.90-27.65L426.90-27.65L426.90-25.35L426.90-25.35Q426.90-23.25 426.27-21.78L426.27-21.78L426.27-21.78Q425.65-20.30 424.10-19.65L424.10-19.65L424.10-19.65Q426.80-19.35 428.47-17.45L428.47-17.45L428.47-17.45Q430.15-15.55 430.15-12.40L430.15-12.40L430.15-1.80L430.15-1.80Q430.15-0.85 429.72-0.43L429.72-0.43L429.72-0.43Q429.30 0 428.35 0L428.35 0L420.60 0L420.60 0Q419.65 0 419.22-0.43L419.22-0.43L419.22-0.43Q418.80-0.85 418.80-1.80L418.80-1.80L418.80-9.45L418.80-9.45Q418.80-10.55 418.38-11.08L418.38-11.08L418.38-11.08Q417.95-11.60 416.90-11.60L416.90-11.60L409.90-11.60L409.90-1.80L409.90-1.80Q409.90-0.85 409.47-0.43L409.47-0.43L409.47-0.43Q409.05 0 408.10 0ZM454.00 0L454.00 0L445.90 0L445.90 0Q444.95 0 444.52-0.43L444.52-0.43L444.52-0.43Q444.10-0.85 444.10-1.80L444.10-1.80L444.10-8.20L436.45-18.45L436.45-18.45Q435.30-20 434.92-21.15L434.92-21.15L434.92-21.15Q434.55-22.30 434.55-24.60L434.55-24.60L434.55-34.20L434.55-34.20Q434.55-35.15 434.97-35.58L434.97-35.58L434.97-35.58Q435.40-36 436.35-36L436.35-36L444.05-36L444.05-36Q445.00-36 445.42-35.58L445.42-35.58L445.42-35.58Q445.85-35.15 445.85-34.20L445.85-34.20L445.85-26L445.85-26Q445.85-25.50 445.90-24.95L445.90-24.95L445.90-24.95Q445.95-24.40 446.30-23.90L446.30-23.90L448.60-20.30L448.60-20.30Q448.85-19.85 449.12-19.65L449.12-19.65L449.12-19.65Q449.40-19.45 449.80-19.45L449.80-19.45L450.30-19.45L450.30-19.45Q450.70-19.45 450.97-19.65L450.97-19.65L450.97-19.65Q451.25-19.85 451.50-20.30L451.50-20.30L453.80-23.90L453.80-23.90Q454.15-24.40 454.20-24.95L454.20-24.95L454.20-24.95Q454.25-25.50 454.25-26L454.25-26L454.25-34.20L454.25-34.20Q454.25-35.15 454.67-35.58L454.67-35.58L454.67-35.58Q455.10-36 456.05-36L456.05-36L463.50-36L463.50-36Q464.45-36 464.87-35.58L464.87-35.58L464.87-35.58Q465.30-35.15 465.30-34.20L465.30-34.20L465.30-24.60L465.30-24.60Q465.30-22.30 464.90-21.15L464.90-21.15L464.90-21.15Q464.50-20 463.40-18.45L463.40-18.45L455.80-8.15L455.80-1.80L455.80-1.80Q455.80-0.85 455.37-0.43L455.37-0.43L455.37-0.43Q454.95 0 454.00 0Z" fill="url(#editing-shadow-gradient2)"></path></g></g></g><style>text {
  font-size: 64px;
  font-family: Arial Black;
  dominant-baseline: central;
  text-anchor: middle;
}</style></svg>